<svg width="32" height="32" viewBox="0 0 32 32" fill="none" xmlns="http://www.w3.org/2000/svg">
  <rect width="32" height="32" rx="8" fill="#000000"/>
  <path d="M10 8H16C18.2091 8 20 9.79086 20 12C20 13.5654 19.0988 14.9204 17.7813 15.5623C19.1245 16.191 20 17.5591 20 19.1429C20 21.2731 18.2731 23 16.1429 23H10V8Z" fill="#00FF00" fill-opacity="0.2"/>
  <path d="M12 10V21H16.1429C17.1685 21 18 20.1685 18 19.1429C18 18.3687 17.524 17.7056 16.8488 17.4356L15 16.696V14.304L16.8488 13.5644C17.524 13.2944 18 12.6313 18 11.8571C18 10.8315 17.1685 10 16.1429 10H12Z" fill="#00FF00"/>
  <circle cx="21" cy="11" r="2" fill="#00FF00"/>
</svg>
